<?xml version="1.0" encoding="UTF-8"?>
<svg width="79px" height="79px" viewBox="0 0 79 79" version="1.1" xmlns="http://www.w3.org/2000/svg" xmlns:xlink="http://www.w3.org/1999/xlink">
    <!-- Generator: Sketch 49.1 (51147) - http://www.bohemiancoding.com/sketch -->
    <title>Page 1</title>
    <desc>Created with Sketch.</desc>
    <defs></defs>
    <g id="Page-1" stroke="none" stroke-width="1" fill="none" fill-rule="evenodd" stroke-linecap="round" stroke-linejoin="round">
        <g id="Icons" transform="translate(-283.000000, -547.000000)" stroke="#FAD503" stroke-width="4.193">
            <g id="Page-1" transform="translate(285.000000, 549.000000)">
                <path d="M61.9679,37.5056 C61.9679,51.0156 51.0159,61.9676 37.5059,61.9676 C23.9949,61.9676 13.0429,51.0156 13.0429,37.5056 C13.0429,23.9956 23.9949,13.0436 37.5059,13.0436 C51.0159,13.0436 61.9679,23.9956 61.9679,37.5056 Z" id="Stroke-1"></path>
                <path d="M74.9145,37.5056 C74.9145,40.7086 71.2825,43.3916 70.4925,46.3456 C69.6755,49.4026 71.4555,53.5376 69.9075,56.2146 C68.3365,58.9286 63.8505,59.4446 61.6475,61.6476 C59.4445,63.8516 58.9285,68.3366 56.2135,69.9076 C53.5375,71.4556 49.4025,69.6756 46.3455,70.4926 C43.3915,71.2826 40.7085,74.9146 37.5055,74.9146 C34.3025,74.9146 31.6195,71.2826 28.6655,70.4926 C25.6085,69.6756 21.4735,71.4556 18.7965,69.9076 C16.0825,68.3366 15.5665,63.8506 13.3625,61.6476 C11.1605,59.4446 6.6745,58.9286 5.1035,56.2136 C3.5555,53.5376 5.3355,49.4026 4.5185,46.3456 C3.7285,43.3916 0.0965,40.7086 0.0965,37.5056 C0.0965,34.3026 3.7285,31.6196 4.5185,28.6656 C5.3355,25.6086 3.5555,21.4736 5.1035,18.7966 C6.6745,16.0826 11.1605,15.5666 13.3635,13.3636 C15.5665,11.1596 16.0825,6.6746 18.7975,5.1036 C21.4735,3.5556 25.6085,5.3356 28.6655,4.5186 C31.6195,3.7286 34.3025,0.0966 37.5055,0.0966 C40.7085,0.0966 43.3915,3.7286 46.3455,4.5186 C49.4025,5.3356 53.5385,3.5556 56.2145,5.1036 C58.9285,6.6746 59.4455,11.1606 61.6485,13.3636 C63.8515,15.5666 68.3375,16.0826 69.9075,18.7976 C71.4555,21.4736 69.6755,25.6086 70.4925,28.6656 C71.2825,31.6196 74.9145,34.3026 74.9145,37.5056 Z" id="Stroke-3"></path>
                <polyline id="Stroke-5" points="28.2594 37.2909 35.2304 44.0599 46.7514 30.9509"></polyline>
            </g>
        </g>
    </g>
</svg>